<svg xmlns="http://www.w3.org/2000/svg" xmlns:xlink="http://www.w3.org/1999/xlink" width="300" zoomAndPan="magnify" viewBox="0 0 224.87999 225" height="300" preserveAspectRatio="xMidYMid meet" version="1.0"><defs><g/><clipPath id="id1"><path d="M 44.027344 27.722656 L 184.199219 27.722656 L 184.199219 158.902344 L 44.027344 158.902344 Z M 44.027344 27.722656 " clip-rule="nonzero"/></clipPath><clipPath id="id2"><path d="M 157.40625 120.644531 L 173.894531 120.644531 L 173.894531 137.132812 L 157.40625 137.132812 Z M 157.40625 120.644531 " clip-rule="nonzero"/></clipPath></defs><g clip-path="url(#id1)"><path stroke-linecap="butt" transform="matrix(-0.749287, -0.000000000000000092, 0.000000000000000092, -0.749332, 184.198329, 158.902482)" fill="none" stroke-linejoin="miter" d="M -0.001188 0.00018412 L 187.072508 0.00018412 L 187.072508 175.062278 L -0.001188 175.062278 L -0.001188 0.00018412 " stroke="#ffffff" stroke-width="16" stroke-opacity="1" stroke-miterlimit="4"/></g><g fill="#ffffff" fill-opacity="1"><g transform="translate(46.921269, 135.661956)"><g><path d="M 104.957031 -85.300781 L 75.289062 -85.300781 L 58.101562 -18.421875 L 40.917969 -85.300781 L 10.507812 -85.300781 L 10.507812 0 L 29.917969 0 L 29.917969 -37.828125 C 29.917969 -46.113281 29.917969 -57.238281 29.667969 -66.015625 C 31.277344 -57.238281 34.121094 -46.113281 36.46875 -37.953125 L 47.472656 0 L 67.992188 0 L 78.75 -37.953125 C 81.222656 -46.113281 84.066406 -57.363281 85.796875 -66.140625 C 85.546875 -57.363281 85.546875 -46.113281 85.546875 -37.828125 L 85.546875 0 L 104.957031 0 Z M 104.957031 -85.300781 "/></g></g></g><g clip-path="url(#id2)"><path fill="#ffffff" d="M 165.648438 120.644531 C 161.097656 120.644531 157.40625 124.335938 157.40625 128.890625 C 157.40625 133.441406 161.097656 137.132812 165.648438 137.132812 C 170.203125 137.132812 173.894531 133.441406 173.894531 128.890625 C 173.894531 124.335938 170.203125 120.644531 165.648438 120.644531 " fill-opacity="1" fill-rule="nonzero"/></g><g fill="#ffffff" fill-opacity="1"><g transform="translate(55.648944, 198.315412)"><g><path d="M 3.148438 0 L 7.371094 0 L 7.371094 -18.292969 L 13.429688 -2.128906 L 17.6875 -2.128906 L 23.746094 -18.292969 L 23.746094 0 L 27.96875 0 L 27.96875 -24.453125 L 22.050781 -24.453125 L 15.558594 -7.0625 L 9.070312 -24.453125 L 3.148438 -24.453125 Z M 3.148438 0 "/></g></g></g><g fill="#ffffff" fill-opacity="1"><g transform="translate(86.764505, 198.315412)"><g><path d="M 7.234375 0.347656 C 9.292969 0.347656 11.128906 -0.3125 12.617188 -2.476562 L 12.894531 0 L 16.371094 0 L 16.371094 -10.488281 C 16.371094 -14.710938 13.601562 -17.652344 8.894531 -17.652344 C 5.484375 -17.652344 3.289062 -16.128906 1.625 -13.863281 L 4.863281 -11.527344 C 5.609375 -12.789062 6.941406 -13.964844 8.929688 -13.964844 C 11.164062 -13.964844 12.339844 -12.511719 12.339844 -10.316406 L 7.839844 -10.316406 C 3.964844 -10.316406 0.953125 -9.070312 0.953125 -5.3125 C 0.953125 -1.695312 3.6875 0.347656 7.234375 0.347656 Z M 7.839844 -3.21875 C 6.195312 -3.21875 5.277344 -4.03125 5.277344 -5.175781 C 5.277344 -6.265625 6.160156 -7.269531 8.082031 -7.269531 L 12.339844 -7.269531 C 12.269531 -5.105469 10.246094 -3.21875 7.839844 -3.21875 Z M 7.839844 -3.21875 "/></g></g></g><g fill="#ffffff" fill-opacity="1"><g transform="translate(105.1258, 198.315412)"><g><path d="M 2.507812 0 L 6.59375 0 L 6.59375 -7.304688 C 6.59375 -11.699219 8.652344 -13.535156 10.625 -13.535156 C 11.300781 -13.535156 11.941406 -13.328125 12.511719 -12.945312 L 14.433594 -16.40625 C 13.601562 -17.253906 12.410156 -17.652344 11.265625 -17.652344 C 9.328125 -17.652344 7.371094 -16.476562 6.628906 -14.382812 L 6.628906 -17.289062 L 2.507812 -17.289062 Z M 2.507812 0 "/></g></g></g><g fill="#ffffff" fill-opacity="1"><g transform="translate(119.229906, 198.315412)"><g><path d="M 9.363281 0.347656 C 12.789062 0.347656 15.488281 -1.558594 16.632812 -4.777344 L 12.789062 -6.230469 C 12.339844 -4.605469 11.023438 -3.480469 9.328125 -3.480469 C 6.386719 -3.480469 5.277344 -5.988281 5.277344 -8.617188 C 5.277344 -11.199219 6.421875 -13.828125 9.328125 -13.828125 C 11.058594 -13.828125 12.339844 -12.652344 12.789062 -10.988281 L 16.804688 -12.546875 C 15.488281 -15.992188 12.753906 -17.652344 9.328125 -17.652344 C 3.6875 -17.652344 0.988281 -13.152344 0.988281 -8.617188 C 0.988281 -4.03125 3.722656 0.347656 9.363281 0.347656 Z M 9.363281 0.347656 "/></g></g></g><g fill="#ffffff" fill-opacity="1"><g transform="translate(136.60478, 198.315412)"><g><path d="M 8.289062 0.347656 C 10.347656 0.347656 12.148438 -0.398438 13.394531 -2.023438 L 13.394531 0 L 17.6875 0 L 17.6875 -17.289062 L 13.394531 -17.289062 L 13.394531 -9.5 C 13.394531 -4.5 11.371094 -3.480469 9.398438 -3.480469 C 6.835938 -3.480469 6.265625 -5.210938 6.265625 -8.046875 L 6.265625 -17.289062 L 1.992188 -17.289062 L 1.992188 -8.1875 C 1.992188 -2.976562 3.929688 0.347656 8.289062 0.347656 Z M 8.289062 0.347656 "/></g></g></g><g fill="#ffffff" fill-opacity="1"><g transform="translate(156.800474, 198.315412)"><g><path d="M 7.71875 0.347656 C 10.988281 0.347656 14.46875 -1.417969 14.46875 -5.417969 C 14.46875 -11.769531 5.675781 -10.210938 5.675781 -12.824219 C 5.675781 -13.636719 6.523438 -14.3125 7.910156 -14.3125 C 9.777344 -14.3125 10.746094 -13.1875 11.335938 -12.113281 L 14.605469 -13.898438 C 13.292969 -16.234375 11.023438 -17.652344 8.046875 -17.652344 C 4.707031 -17.652344 1.625 -15.921875 1.625 -12.269531 C 1.625 -6.160156 10.316406 -8.117188 10.316406 -5.210938 C 10.316406 -4.292969 9.46875 -3.148438 7.511719 -3.148438 C 5.210938 -3.148438 4.292969 -4.742188 3.824219 -5.988281 L 0.46875 -4.5 C 1.316406 -1.835938 4.085938 0.347656 7.71875 0.347656 Z M 7.71875 0.347656 "/></g></g></g></svg>